26e4202638bc384b82d2b5eb4d33a5f0 *tests/data/fate/copy-trac4914-avi.avi
479494 tests/data/fate/copy-trac4914-avi.avi
#tb 0: 1001/30000
#media_type 0: video
#codec_id 0: rawvideo
#dimensions 0: 480x270
#sar 0: 1/1
#tb 1: 1/48000
#media_type 1: audio
#codec_id 1: pcm_s16le
#sample_rate 1: 48000
#channel_layout_name 1: stereo
1,          0,          0,     1152,     4608, 0xb24f5c9d
1,       1152,       1152,     1152,     4608, 0xe2da5c32
1,       2304,       2304,     1152,     4608, 0xd76023d9
1,       3456,       3456,     1152,     4608, 0xbefd52f1
1,       4608,       4608,     1152,     4608, 0x50cf0f00
1,       5760,       5760,     1152,     4608, 0xfcda4f0c
1,       6912,       6912,     1152,     4608, 0xba131540
1,       8064,       8064,     1152,     4608, 0x4c7b99c0
1,       9216,       9216,     1152,     4608, 0xd3798646
1,      10368,      10368,     1152,     4608, 0x3f65117b
1,      11520,      11520,     1152,     4608, 0x7390dc17
1,      12672,      12672,     1152,     4608, 0x0c3f7b9f
1,      13824,      13824,     1152,     4608, 0x3b16289c
0,          9,          9,        1,   259200, 0xf36957da
1,      14976,      14976,     1152,     4608, 0xe09eb256
0,         10,         10,        1,   259200, 0x29a1f586
1,      16128,      16128,     1152,     4608, 0x1ab4e8fd
1,      17280,      17280,     1152,     4608, 0x200660f8
0,         11,         11,        1,   259200, 0x5578d9c3
1,      18432,      18432,     1152,     4608, 0xd490d0e4
0,         12,         12,        1,   259200, 0x83938b61
1,      19584,      19584,     1152,     4608, 0x9a529aaa
1,      20736,      20736,     1152,     4608, 0x0f5ebb76
0,         13,         13,        1,   259200, 0xa6ce7618
1,      21888,      21888,     1152,     4608, 0xf0c9f255
1,      23040,      23040,     1152,     4608, 0xf5961288
0,         15,         15,        1,   259200, 0x4892a0f5
1,      24192,      24192,     1152,     4608, 0x2b587de2
1,      25344,      25344,     1152,     4608, 0xbba5cece
0,         16,         16,        1,   259200, 0x921c6051
1,      26496,      26496,     1152,     4608, 0xd4faead2
0,         17,         17,        1,   259200, 0x618c0026
1,      27648,      27648,     1152,     4608, 0x46d0ac7b
1,      28800,      28800,     1152,     4608, 0xa02d5881
0,         18,         18,        1,   259200, 0xdbc3ca4d
1,      29952,      29952,     1152,     4608, 0xc370577a
0,         19,         19,        1,   259200, 0xf088c731
1,      31104,      31104,     1152,     4608, 0xb12a3508
1,      32256,      32256,     1152,     4608, 0xcc7fae28
1,      33408,      33408,     1152,     4608, 0x9ae0bd7d
0,         21,         21,        1,   259200, 0xce77ddee
1,      34560,      34560,     1152,     4608, 0x46fecad2
0,         22,         22,        1,   259200, 0x798565eb
1,      35712,      35712,     1152,     4608, 0x3ee707e5
0,         23,         23,        1,   259200, 0x57185dc8
1,      36864,      36864,     1152,     4608, 0xf6d71808
1,      38016,      38016,     1152,     4608, 0xa83e2440
0,         24,         24,        1,   259200, 0x607a9086
1,      39168,      39168,     1152,     4608, 0x6d92e2a8
0,         25,         25,        1,   259200, 0x59bd5c34
1,      40320,      40320,     1152,     4608, 0x595272b1
1,      41472,      41472,     1152,     4608, 0x37fd2e64
1,      42624,      42624,     1152,     4608, 0x5673aa22
0,         27,         27,        1,   259200, 0xadb1da77
1,      43776,      43776,     1152,     4608, 0xa277152c
0,         28,         28,        1,   259200, 0x1f7d7b14
1,      44928,      44928,     1152,     4608, 0xa91bf261
1,      46080,      46080,     1152,     4608, 0x58769420
0,         29,         29,        1,   259200, 0xcdd45467
1,      47232,      47232,     1152,     4608, 0x1149e890
